<svg width="24" height="24" viewBox="0 0 24 24" fill="none" xmlns="http://www.w3.org/2000/svg">
<path d="M4.09797 12H9.74997L10.2 11.1111L12 15.1111L13.8 8.88889L15.15 12H19.893M18.3 13.7778C19.641 12.48 21 10.9244 21 8.88889C21 7.59228 20.4785 6.34877 19.5502 5.43192C18.6219 4.51508 17.3628 4 16.05 4C14.466 4 13.35 4.44444 12 5.77778C10.65 4.44444 9.534 4 7.95 4C6.63718 4 5.37813 4.51508 4.44982 5.43192C3.52152 6.34877 3 7.59228 3 8.88889C3 10.9333 4.35 12.4889 5.7 13.7778L12 20L18.3 13.7778Z" stroke="#1E1D22" stroke-width="1.5" stroke-linecap="round" stroke-linejoin="round"/>
</svg>
