<svg width="24" height="24" viewBox="0 0 24 24" fill="none" xmlns="http://www.w3.org/2000/svg">
<path d="M9.67207 9.60002C9.86015 9.06535 10.2314 8.6145 10.72 8.32732C11.2087 8.04014 11.7832 7.93517 12.3418 8.03099C12.9004 8.1268 13.4071 8.41724 13.7721 8.85084C14.1371 9.28444 14.3369 9.83323 14.3361 10.4C14.3361 12 11.9361 12.8 11.9361 12.8M12 16H12.008M20 12C20 16.4183 16.4183 20 12 20C7.58172 20 4 16.4183 4 12C4 7.58172 7.58172 4 12 4C16.4183 4 20 7.58172 20 12Z" stroke="#1E1D22" stroke-width="1.5" stroke-linecap="round" stroke-linejoin="round"/>
</svg>
