<svg width="24" height="24" viewBox="0 0 24 24" fill="none" xmlns="http://www.w3.org/2000/svg">
<path d="M10.6778 19.1959C10.808 19.4394 10.9994 19.6425 11.232 19.7839C11.4646 19.9254 11.7298 20 12 20C12.2703 20 12.5355 19.9254 12.7681 19.7839C13.0007 19.6425 13.1921 19.4394 13.3223 19.1959M7.33333 8.79872C7.33333 7.52602 7.825 6.30545 8.70017 5.40551C9.57534 4.50558 10.7623 4 12 4C13.2377 4 14.4247 4.50558 15.2998 5.40551C16.175 6.30545 16.6667 7.52602 16.6667 8.79872C16.6667 14.3972 19 15.9968 19 15.9968H5C5 15.9968 7.33333 14.3972 7.33333 8.79872Z" stroke="#1E1D22" stroke-width="1.5" stroke-linecap="round" stroke-linejoin="round"/>
</svg>
