<svg width="40" height="40" viewBox="0 0 40 40" fill="none" xmlns="http://www.w3.org/2000/svg">
<path d="M0 6C0 2.68629 2.68629 0 6 0H34C37.3137 0 40 2.68629 40 6V34C40 37.3137 37.3137 40 34 40H6C2.68629 40 0 37.3137 0 34V6Z" fill="url(#paint0_linear_24_99)"/>
<path d="M13.4034 21.9545H15.4943L16.5455 23.3068L17.5795 24.5114L19.5284 26.9545H17.233L15.892 25.3068L15.2045 24.3295L13.4034 21.9545ZM19.7045 20.1818C19.7045 21.4508 19.464 22.5303 18.983 23.4205C18.5057 24.3106 17.8542 24.9905 17.0284 25.4602C16.2064 25.9261 15.2822 26.1591 14.2557 26.1591C13.2216 26.1591 12.2936 25.9242 11.4716 25.4545C10.6496 24.9848 10 24.3049 9.52273 23.4148C9.04545 22.5246 8.80682 21.447 8.80682 20.1818C8.80682 18.9129 9.04545 17.8333 9.52273 16.9432C10 16.053 10.6496 15.375 11.4716 14.9091C12.2936 14.4394 13.2216 14.2045 14.2557 14.2045C15.2822 14.2045 16.2064 14.4394 17.0284 14.9091C17.8542 15.375 18.5057 16.053 18.983 16.9432C19.464 17.8333 19.7045 18.9129 19.7045 20.1818ZM17.2102 20.1818C17.2102 19.3598 17.0871 18.6667 16.8409 18.1023C16.5985 17.5379 16.2557 17.1098 15.8125 16.8182C15.3693 16.5265 14.8504 16.3807 14.2557 16.3807C13.661 16.3807 13.142 16.5265 12.6989 16.8182C12.2557 17.1098 11.911 17.5379 11.6648 18.1023C11.4223 18.6667 11.3011 19.3598 11.3011 20.1818C11.3011 21.0038 11.4223 21.697 11.6648 22.2614C11.911 22.8258 12.2557 23.2538 12.6989 23.5455C13.142 23.8371 13.661 23.983 14.2557 23.983C14.8504 23.983 15.3693 23.8371 15.8125 23.5455C16.2557 23.2538 16.5985 22.8258 16.8409 22.2614C17.0871 21.697 17.2102 21.0038 17.2102 20.1818ZM21.527 26V14.3636H26.1179C27.0005 14.3636 27.7524 14.5322 28.3736 14.8693C28.9948 15.2027 29.4683 15.6667 29.794 16.2614C30.1236 16.8523 30.2884 17.5341 30.2884 18.3068C30.2884 19.0795 30.1217 19.7614 29.7884 20.3523C29.455 20.9432 28.9721 21.4034 28.3395 21.733C27.7107 22.0625 26.9493 22.2273 26.0554 22.2273H23.1293V20.2557H25.6577C26.1312 20.2557 26.5213 20.1742 26.8281 20.0114C27.1387 19.8447 27.3698 19.6155 27.5213 19.3239C27.6766 19.0284 27.7543 18.6894 27.7543 18.3068C27.7543 17.9205 27.6766 17.5833 27.5213 17.2955C27.3698 17.0038 27.1387 16.7784 26.8281 16.6193C26.5175 16.4564 26.1236 16.375 25.6463 16.375H23.9872V26H21.527Z" fill="white"/>
<defs>
<linearGradient id="paint0_linear_24_99" x1="0" y1="0" x2="37.5" y2="40" gradientUnits="userSpaceOnUse">
<stop stop-color="#E400A0"/>
<stop offset="1" stop-color="#4C00FE"/>
</linearGradient>
</defs>
</svg>
